<?xml version="1.0" encoding="utf-8"?>
<!-- Generator: Adobe Illustrator 27.6.1, SVG Export Plug-In . SVG Version: 6.00 Build 0)  -->
<svg version="1.1" id="Layer_1" xmlns="http://www.w3.org/2000/svg" xmlns:xlink="http://www.w3.org/1999/xlink" x="0px" y="0px"
	 viewBox="0 0 16 16" style="enable-background:new 0 0 16 16;" xml:space="preserve">
<style type="text/css">
	.st0{fill:#00A651;stroke:#00A651;stroke-miterlimit:10;}
	.st1{fill:#D7DF23;stroke:#D7DF23;stroke-miterlimit:10;}
</style>
<rect x="6.25" y="3.42" class="st0" width="3.71" height="9.2"/>
<rect x="10.75" y="2.27" transform="matrix(0.6264 0.7795 -0.7795 0.6264 6.6621 -7.3831)" class="st0" width="0.58" height="1.97"/>
<rect x="4.29" y="1.2" transform="matrix(0.6675 -0.7446 0.7446 0.6675 -0.4389 4.3338)" class="st0" width="0.68" height="2.91"/>
<rect x="7.73" y="2.28" transform="matrix(0.9979 -0.0644 0.0644 0.9979 -0.1543 0.5273)" class="st0" width="0.76" height="0.76"/>
<rect x="10.64" y="12.13" transform="matrix(-0.7071 0.7071 -0.7071 -0.7071 27.9332 14.6664)" class="st0" width="0.58" height="1.97"/>
<rect x="4.74" y="12.57" transform="matrix(0.6264 0.7795 -0.7795 0.6264 12.4477 1.1426)" class="st0" width="0.58" height="1.97"/>
<ellipse class="st1" cx="8.11" cy="7.97" rx="3.26" ry="4.92"/>
</svg>
